<svg width="14" height="14" viewBox="0 0 14 14" fill="none" xmlns="http://www.w3.org/2000/svg">
<path fill-rule="evenodd" clip-rule="evenodd" d="M1.61743 1.61743L1.61926 1.6164C1.6207 1.61565 1.62319 1.61443 1.62697 1.61288C1.64331 1.60616 1.67959 1.59469 1.752 1.58495C1.91005 1.5637 2.13055 1.56251 2.5 1.56251H4C4.36946 1.56251 4.58996 1.5637 4.74801 1.58495C4.82042 1.59469 4.85669 1.60616 4.87303 1.61288C4.87681 1.61443 4.8793 1.61565 4.88075 1.6164L4.88257 1.61743L4.88361 1.61926C4.88437 1.62071 4.88558 1.6232 4.88713 1.62698C4.89385 1.64331 4.90532 1.67958 4.91506 1.752C4.93631 1.91004 4.9375 2.13055 4.9375 2.50001V5.5C4.9375 5.86945 4.93631 6.08995 4.91506 6.24798C4.90532 6.32043 4.89385 6.35673 4.88713 6.373C4.88558 6.37683 4.88437 6.3793 4.88361 6.38073L4.88257 6.3826L4.88075 6.38358C4.8793 6.3844 4.87681 6.3856 4.87303 6.3871C4.85669 6.39385 4.82042 6.40533 4.74801 6.41508C4.58996 6.4363 4.36946 6.4375 4 6.4375H2.5C2.13055 6.4375 1.91005 6.4363 1.752 6.41508C1.67959 6.40533 1.64331 6.39385 1.62697 6.3871C1.62319 6.3856 1.6207 6.3844 1.61926 6.38358L1.61743 6.3826L1.6164 6.38073C1.61564 6.3793 1.61443 6.37683 1.61287 6.373C1.60615 6.35673 1.59469 6.32043 1.58494 6.24798C1.5637 6.08995 1.5625 5.86945 1.5625 5.5V2.50001C1.5625 2.13055 1.5637 1.91004 1.58494 1.752C1.59469 1.67958 1.60615 1.64331 1.61287 1.62698C1.61443 1.6232 1.61564 1.62071 1.6164 1.61926L1.61743 1.61743ZM2.46644 0.437503C2.4776 0.43751 2.48878 0.43751 2.5 0.43751H4C4.01122 0.43751 4.02241 0.43751 4.03357 0.437503C4.35817 0.437465 4.6558 0.437435 4.89791 0.469985C5.16452 0.505827 5.44631 0.590165 5.67805 0.82193C5.90988 1.05369 5.99418 1.33549 6.03003 1.6021C6.06258 1.84421 6.06258 2.14184 6.0625 2.46645C6.0625 2.47761 6.0625 2.48879 6.0625 2.50001V5.5C6.0625 5.51125 6.0625 5.52243 6.0625 5.5336C6.06258 5.8582 6.06258 6.1558 6.03003 6.3979C5.99418 6.66453 5.90988 6.9463 5.67805 7.17805C5.44631 7.40988 5.16452 7.49418 4.89791 7.53003C4.6558 7.56258 4.35817 7.56258 4.03356 7.5625C4.02241 7.5625 4.01122 7.5625 4 7.5625H2.5C2.48878 7.5625 2.4776 7.5625 2.46645 7.5625C2.14183 7.56258 1.8442 7.56258 1.6021 7.53003C1.33549 7.49418 1.0537 7.40988 0.821923 7.17805C0.590158 6.9463 0.505821 6.66453 0.469978 6.3979C0.437428 6.1558 0.437458 5.8582 0.437503 5.5336C0.437503 5.52243 0.437503 5.51125 0.437503 5.5V2.50001C0.437503 2.48879 0.437503 2.4776 0.437503 2.46645C0.437458 2.14183 0.437428 1.84421 0.469978 1.6021C0.505821 1.33549 0.590158 1.05369 0.821923 0.82193C1.0537 0.590165 1.33549 0.505827 1.6021 0.469985C1.8442 0.437435 2.14183 0.437465 2.46644 0.437503ZM9.11928 1.6164L9.1174 1.61743L9.11643 1.61926C9.11568 1.62071 9.1144 1.6232 9.1129 1.62698C9.10615 1.64331 9.09468 1.67958 9.08493 1.752C9.0637 1.91004 9.0625 2.13055 9.0625 2.50001C9.0625 2.86946 9.0637 3.08997 9.08493 3.24801C9.09468 3.32043 9.10615 3.3567 9.1129 3.37303C9.1135 3.37455 9.11455 3.37698 9.11455 3.37698C9.1153 3.37864 9.11643 3.38076 9.11643 3.38076L9.1174 3.38258L9.11928 3.38362C9.1207 3.38437 9.12318 3.38558 9.127 3.38714C9.14328 3.39386 9.17958 3.40533 9.25203 3.41506C9.41005 3.43631 9.63055 3.43751 10 3.43751H11.5C11.8695 3.43751 12.09 3.43631 12.248 3.41506C12.3204 3.40533 12.3567 3.39386 12.373 3.38714C12.3768 3.38558 12.3793 3.38437 12.3807 3.38362L12.3826 3.38258L12.3836 3.38076C12.3843 3.3793 12.3856 3.37682 12.3871 3.37303C12.3939 3.3567 12.4053 3.32043 12.4151 3.24801C12.4363 3.08997 12.4375 2.86946 12.4375 2.50001C12.4375 2.13055 12.4363 1.91004 12.4151 1.752C12.4053 1.67958 12.3939 1.64331 12.3871 1.62698C12.3856 1.6232 12.3843 1.62071 12.3836 1.61926L12.3826 1.61743L12.3807 1.6164C12.3793 1.61565 12.3768 1.61443 12.373 1.61288C12.3567 1.60616 12.3204 1.59469 12.248 1.58495C12.09 1.5637 11.8695 1.56251 11.5 1.56251H10C9.63055 1.56251 9.41005 1.5637 9.25203 1.58495C9.17958 1.59469 9.14328 1.60616 9.127 1.61288C9.12318 1.61443 9.1207 1.61565 9.11928 1.6164ZM9.96648 0.437503H11.5335C11.8582 0.437465 12.1558 0.437435 12.3979 0.469985C12.6645 0.505827 12.9463 0.590165 13.1781 0.82193C13.4099 1.05369 13.4942 1.33549 13.53 1.6021C13.5626 1.84421 13.5626 2.14183 13.5625 2.46645V2.53357C13.5626 2.85818 13.5626 3.1558 13.53 3.39791C13.4942 3.66453 13.4099 3.94632 13.1781 4.17808C12.9463 4.40986 12.6645 4.49418 12.3979 4.53004C12.1558 4.56258 11.8582 4.56255 11.5335 4.56251H9.96648C9.6418 4.56255 9.3442 4.56258 9.1021 4.53004C8.83548 4.49418 8.5537 4.40986 8.32195 4.17808C8.09013 3.94632 8.00583 3.66453 7.96998 3.39791C7.93743 3.1558 7.93743 2.85818 7.9375 2.53357C7.9375 2.52241 7.9375 2.51122 7.9375 2.50001C7.9375 2.48879 7.9375 2.47761 7.9375 2.46645C7.93743 2.14184 7.93743 1.84421 7.96998 1.6021C8.00583 1.33549 8.09013 1.05369 8.32195 0.82193C8.5537 0.590165 8.83548 0.505827 9.1021 0.469985C9.3442 0.437435 9.6418 0.437465 9.96648 0.437503ZM9.96648 6.4375H11.5335C11.8582 6.4375 12.1558 6.43743 12.3979 6.46998C12.6645 6.50583 12.9463 6.59013 13.1781 6.82195C13.4099 7.0537 13.4942 7.33548 13.53 7.6021C13.5626 7.8442 13.5626 8.1418 13.5625 8.46648V11.5336C13.5626 11.8582 13.5626 12.1558 13.53 12.3979C13.4942 12.6645 13.4099 12.9463 13.1781 13.1781C12.9463 13.4099 12.6645 13.4942 12.3979 13.53C12.1558 13.5626 11.8582 13.5626 11.5335 13.5625H9.96648C9.6418 13.5626 9.3442 13.5626 9.1021 13.53C8.83548 13.4942 8.5537 13.4099 8.32195 13.1781C8.09013 12.9463 8.00583 12.6645 7.96998 12.3979C7.93743 12.1558 7.93743 11.8582 7.9375 11.5336V8.5C7.9375 8.48883 7.9375 8.47758 7.9375 8.46648C7.93743 8.1418 7.93743 7.8442 7.96998 7.6021C8.00583 7.33548 8.09013 7.0537 8.32195 6.82195C8.5537 6.59013 8.83548 6.50583 9.1021 6.46998C9.3442 6.43743 9.6418 6.4375 9.96648 6.4375ZM9.11928 7.61643L9.1174 7.6174L9.11643 7.61928C9.11568 7.6207 9.1144 7.62318 9.1129 7.627C9.10615 7.64335 9.09468 7.67958 9.08493 7.75203C9.0637 7.91005 9.0625 8.13055 9.0625 8.5V11.5C9.0625 11.8695 9.0637 12.09 9.08493 12.248C9.09468 12.3204 9.10615 12.3567 9.1129 12.373C9.1144 12.3768 9.11568 12.3793 9.11643 12.3807L9.1174 12.3826L9.11928 12.3836C9.1207 12.3844 9.12318 12.3856 9.127 12.3871C9.14328 12.3939 9.17958 12.4053 9.25203 12.4151C9.41005 12.4363 9.63055 12.4375 10 12.4375H11.5C11.8695 12.4375 12.09 12.4363 12.248 12.4151C12.3204 12.4053 12.3567 12.3939 12.373 12.3871C12.3768 12.3856 12.3793 12.3844 12.3807 12.3836L12.3826 12.3826L12.3836 12.3807C12.3843 12.3793 12.3856 12.3768 12.3871 12.373C12.3939 12.3567 12.4053 12.3204 12.4151 12.248C12.4363 12.09 12.4375 11.8695 12.4375 11.5V8.5C12.4375 8.13055 12.4363 7.91005 12.4151 7.75203C12.4053 7.67958 12.3939 7.64335 12.3871 7.627C12.3862 7.62475 12.3854 7.62295 12.3848 7.62153L12.3836 7.61928L12.3826 7.6174L12.3807 7.61643C12.3793 7.61568 12.3768 7.6144 12.373 7.6129C12.3567 7.60615 12.3204 7.59468 12.248 7.58493C12.09 7.5637 11.8695 7.5625 11.5 7.5625H10C9.63055 7.5625 9.41005 7.5637 9.25203 7.58493C9.17958 7.59468 9.14328 7.60615 9.127 7.6129C9.12318 7.6144 9.1207 7.61568 9.11928 7.61643ZM1.61926 10.6164L1.61743 10.6174L1.6164 10.6193C1.61564 10.6207 1.61443 10.6232 1.61287 10.627C1.60615 10.6434 1.59468 10.6796 1.58494 10.752C1.5637 10.9101 1.5625 11.1306 1.5625 11.5C1.5625 11.8695 1.5637 12.09 1.58494 12.248C1.59468 12.3204 1.60615 12.3567 1.61287 12.373C1.61443 12.3768 1.61564 12.3793 1.6164 12.3807L1.61743 12.3826L1.61926 12.3836C1.6207 12.3844 1.62319 12.3856 1.62697 12.3871C1.64331 12.3939 1.67959 12.4053 1.752 12.4151C1.91005 12.4363 2.13055 12.4375 2.5 12.4375H4C4.36946 12.4375 4.58996 12.4363 4.74801 12.4151C4.82042 12.4053 4.85669 12.3939 4.87303 12.3871C4.87494 12.3864 4.8778 12.3851 4.8778 12.3851L4.88075 12.3836L4.88257 12.3826L4.88361 12.3807L4.8847 12.3786C4.88537 12.3771 4.88619 12.3753 4.88713 12.373C4.89385 12.3567 4.90532 12.3204 4.91506 12.248C4.93631 12.09 4.9375 11.8695 4.9375 11.5C4.9375 11.1306 4.93631 10.9101 4.91506 10.752C4.90532 10.6796 4.89385 10.6434 4.88713 10.627C4.88558 10.6232 4.88437 10.6207 4.88361 10.6193L4.88257 10.6174L4.88075 10.6164C4.8793 10.6157 4.87681 10.6144 4.87303 10.6129C4.85669 10.6062 4.82042 10.5947 4.74801 10.5849C4.58996 10.5637 4.36946 10.5625 4 10.5625H2.5C2.13055 10.5625 1.91005 10.5637 1.752 10.5849C1.67959 10.5947 1.64331 10.6062 1.62697 10.6129C1.62319 10.6144 1.6207 10.6157 1.61926 10.6164ZM2.46645 9.4375H4.03356C4.35817 9.4375 4.6558 9.43743 4.89791 9.46998C5.16452 9.50583 5.44631 9.59013 5.67805 9.82195C5.90988 10.0537 5.99418 10.3355 6.03003 10.6021C6.06258 10.8442 6.06258 11.1418 6.0625 11.4665V11.5336C6.06258 11.8582 6.06258 12.1558 6.03003 12.3979C5.99418 12.6645 5.90988 12.9463 5.67805 13.1781C5.44631 13.4099 5.16452 13.4942 4.89791 13.53C4.6558 13.5626 4.35817 13.5626 4.03356 13.5625H2.46644C2.14183 13.5626 1.8442 13.5626 1.6021 13.53C1.33549 13.4942 1.0537 13.4099 0.821923 13.1781C0.590158 12.9463 0.505821 12.6645 0.469978 12.3979C0.437428 12.1558 0.437458 11.8582 0.437503 11.5336V11.4665C0.437458 11.1418 0.437428 10.8442 0.469978 10.6021C0.505821 10.3355 0.590158 10.0537 0.821923 9.82195C1.0537 9.59013 1.33549 9.50583 1.6021 9.46998C1.8442 9.43743 2.14183 9.4375 2.46645 9.4375Z" fill="#4C6FFF"/>
</svg>
