<svg width="18" height="16" viewBox="0 0 18 16" fill="none" xmlns="http://www.w3.org/2000/svg">
<path d="M9.73816 13.6695C9.64829 13.0644 9.12428 12.5962 8.48403 12.5962H2.37547C1.73655 12.5962 1.21266 13.0635 1.12201 13.6695C0.474937 13.8702 0 14.4611 0 15.1672V15.6094H10.8602V15.1672C10.8602 14.4611 10.3867 13.8709 9.73816 13.6695Z" fill="#909DAD"/>
<path d="M10.8747 6.62585C10.8817 6.606 10.8934 6.58349 10.8982 6.56441L11.3206 5.10552C11.4767 4.56991 11.2155 3.93259 10.7261 3.65425L8.80418 2.55777C8.3307 2.28759 7.60829 2.38997 7.23216 2.77543L6.16403 3.86651C5.84603 4.19063 5.49896 4.7836 5.37389 5.21683L4.95148 6.67572C4.79589 7.21133 5.05588 7.84865 5.54602 8.12699L7.4679 9.22226C7.6511 9.32728 7.86817 9.38255 8.0963 9.38255C8.45656 9.38255 8.80977 9.242 9.03858 9.00526L10.1088 7.91484C10.1226 7.89973 10.1371 7.87932 10.1516 7.86365L12.7206 9.32783C12.7829 9.61445 12.9578 9.87646 13.2357 10.034L16.3709 11.8204C16.5423 11.9179 16.729 11.9644 16.9135 11.9644C17.2883 11.9644 17.6539 11.7727 17.8545 11.4281C18.1538 10.9156 17.9769 10.2599 17.4576 9.96439L14.3217 8.17741C14.0445 8.01976 13.7271 7.99935 13.445 8.09003L10.8747 6.62585Z" fill="#909DAD"/>
<path d="M7.79963 0.748251C7.59977 1.09025 7.7187 1.5269 8.0651 1.72404L11.8274 3.86857C11.9407 3.93344 12.0651 3.96411 12.1883 3.96411C12.4384 3.96411 12.6819 3.8358 12.8159 3.60655C13.0158 3.26412 12.8968 2.82802 12.5504 2.6301L8.78829 0.486128C8.44257 0.289646 8.00016 0.405705 7.79963 0.748251Z" fill="#909DAD"/>
<path d="M3.72082 9.15089L7.48231 11.2948C7.59699 11.3596 7.72151 11.3903 7.84457 11.3903C8.09473 11.3903 8.3374 11.262 8.4722 11.0327C8.67205 10.6909 8.55312 10.2549 8.20673 10.057L4.44457 7.91309C4.09885 7.71517 3.6551 7.83255 3.45524 8.17444C3.2555 8.51632 3.37364 8.95363 3.72082 9.15089Z" fill="#909DAD"/>
</svg>
