<svg width="12" height="12" viewBox="0 0 12 12" fill="none" xmlns="http://www.w3.org/2000/svg">
<path d="M4.33594 7.00124C4.33594 7.61287 4.83094 8.10598 5.44594 8.10598H6.70094C7.23594 8.10598 7.67094 7.67451 7.67094 7.14348C7.67094 6.56503 7.40594 6.36115 7.01094 6.22839L4.99594 5.5646C4.60094 5.43184 4.33594 5.22796 4.33594 4.64951C4.33594 4.11848 4.77094 3.68701 5.30594 3.68701H6.56094C7.17594 3.68701 7.67094 4.18012 7.67094 4.79175" stroke="#B2BBC6" stroke-width="0.625" stroke-linecap="round" stroke-linejoin="round"/>
<path d="M6 3.05176V8.74141" stroke="#B2BBC6" stroke-width="0.625" stroke-linecap="round" stroke-linejoin="round"/>
<path d="M6 10.638C8.76142 10.638 11 8.51524 11 5.89665C11 3.27806 8.76142 1.15527 6 1.15527C3.23858 1.15527 1 3.27806 1 5.89665C1 8.51524 3.23858 10.638 6 10.638Z" stroke="#B2BBC6" stroke-width="0.625" stroke-linecap="round" stroke-linejoin="round"/>
</svg>
