<svg width="18" height="18" viewBox="0 0 18 18" fill="none" xmlns="http://www.w3.org/2000/svg">
<g clip-path="url(#clip0_2744_8725)">
<path d="M16.0268 0.654297H1.97319C0.883065 0.654297 0 1.53788 0 2.62749V11.5699C0 12.6595 0.883065 13.5431 1.97319 13.5431H2.73754L1.17692 16.6736C1.06524 16.8489 1.09183 17.0774 1.23997 17.2215C1.32446 17.3048 1.43499 17.3465 1.54607 17.3465C1.62944 17.3465 1.71504 17.3222 1.78971 17.2724L8.29137 13.5431H16.0268C17.117 13.5431 18 12.6595 18 11.5699V2.62749C18 1.53788 17.1169 0.654297 16.0268 0.654297ZM4.94236 8.38723C4.21777 8.38723 3.63034 7.7998 3.63034 7.07521C3.63034 6.35063 4.21777 5.7632 4.94236 5.7632C5.66699 5.7632 6.25437 6.35063 6.25437 7.07521C6.25437 7.7998 5.66695 8.38723 4.94236 8.38723ZM9.00002 8.38723C8.27539 8.38723 7.688 7.7998 7.688 7.07521C7.688 6.35063 8.27539 5.7632 9.00002 5.7632C9.72461 5.7632 10.312 6.35063 10.312 7.07521C10.312 7.7998 9.72461 8.38723 9.00002 8.38723ZM13.0576 8.38723C12.3331 8.38723 11.7456 7.7998 11.7456 7.07521C11.7456 6.35063 12.3331 5.7632 13.0576 5.7632C13.7822 5.7632 14.3697 6.35063 14.3697 7.07521C14.3697 7.7998 13.7823 8.38723 13.0576 8.38723Z" fill="#909DAD"/>
</g>
<defs>
<clipPath id="clip0_2744_8725">
<rect width="18" height="18" fill="white"/>
</clipPath>
</defs>
</svg>
