<svg width="12" height="12" viewBox="0 0 12 12" fill="none" xmlns="http://www.w3.org/2000/svg">
<path d="M4.75 6.51935C4.75 6.97927 5.12501 7.3491 5.58501 7.3491H6.52499C6.92499 7.3491 7.25 7.02668 7.25 6.62366C7.25 6.1922 7.05 6.03574 6.755 5.93617L5.25 5.43832C4.955 5.33875 4.755 5.18703 4.755 4.75082C4.755 4.35255 5.08 4.02539 5.48 4.02539H6.42C6.88 4.02539 7.255 4.39522 7.255 4.85513" stroke="#B2BBC6" stroke-width="0.625" stroke-linecap="round" stroke-linejoin="round"/>
<path d="M6 3.55615V7.82339" stroke="#B2BBC6" stroke-width="0.625" stroke-linecap="round" stroke-linejoin="round"/>
<path d="M11 5.68962C11 8.30686 8.76 10.431 6 10.431C3.24 10.431 1 8.30686 1 5.68962C1 3.07238 3.24 0.948242 6 0.948242" stroke="#B2BBC6" stroke-width="0.625" stroke-linecap="round" stroke-linejoin="round"/>
<path d="M8.5 1.42236V3.31891H10.5" stroke="#B2BBC6" stroke-width="0.625" stroke-linecap="round" stroke-linejoin="round"/>
<path d="M11 0.948242L8.5 3.31893" stroke="#B2BBC6" stroke-width="0.625" stroke-linecap="round" stroke-linejoin="round"/>
</svg>
