<svg width="119" height="24" viewBox="0 0 119 24" fill="none" xmlns="http://www.w3.org/2000/svg">
<path d="M0.328125 23V0.09375H7.75C10.5625 0.09375 12.3958 0.208333 13.25 0.4375C14.5625 0.78125 15.6615 1.53125 16.5469 2.6875C17.4323 3.83333 17.875 5.31771 17.875 7.14062C17.875 8.54688 17.6198 9.72917 17.1094 10.6875C16.599 11.6458 15.9479 12.401 15.1562 12.9531C14.375 13.4948 13.5781 13.8542 12.7656 14.0312C11.6615 14.25 10.0625 14.3594 7.96875 14.3594H4.95312V23H0.328125ZM4.95312 3.96875V10.4688H7.48438C9.30729 10.4688 10.526 10.349 11.1406 10.1094C11.7552 9.86979 12.2344 9.49479 12.5781 8.98438C12.9323 8.47396 13.1094 7.88021 13.1094 7.20312C13.1094 6.36979 12.8646 5.68229 12.375 5.14062C11.8854 4.59896 11.2656 4.26042 10.5156 4.125C9.96354 4.02083 8.85417 3.96875 7.1875 3.96875H4.95312ZM24.9219 11.4688L20.9375 10.75C21.3854 9.14583 22.1562 7.95833 23.25 7.1875C24.3438 6.41667 25.9688 6.03125 28.125 6.03125C30.0833 6.03125 31.5417 6.26562 32.5 6.73438C33.4583 7.19271 34.1302 7.78125 34.5156 8.5C34.9115 9.20833 35.1094 10.5156 35.1094 12.4219L35.0625 17.5469C35.0625 19.0052 35.1302 20.0833 35.2656 20.7812C35.4115 21.4688 35.6771 22.2083 36.0625 23H31.7188C31.6042 22.7083 31.4635 22.276 31.2969 21.7031C31.224 21.4427 31.1719 21.2708 31.1406 21.1875C30.3906 21.9167 29.5885 22.4635 28.7344 22.8281C27.8802 23.1927 26.9688 23.375 26 23.375C24.2917 23.375 22.9427 22.9115 21.9531 21.9844C20.974 21.0573 20.4844 19.8854 20.4844 18.4688C20.4844 17.5312 20.7083 16.6979 21.1562 15.9688C21.6042 15.2292 22.2292 14.6667 23.0312 14.2812C23.8438 13.8854 25.0104 13.5417 26.5312 13.25C28.5833 12.8646 30.0052 12.5052 30.7969 12.1719V11.7344C30.7969 10.8906 30.5885 10.2917 30.1719 9.9375C29.7552 9.57292 28.9688 9.39062 27.8125 9.39062C27.0312 9.39062 26.4219 9.54688 25.9844 9.85938C25.5469 10.1615 25.1927 10.6979 24.9219 11.4688ZM30.7969 15.0312C30.2344 15.2188 29.3438 15.4427 28.125 15.7031C26.9062 15.9635 26.1094 16.2188 25.7344 16.4688C25.1615 16.875 24.875 17.3906 24.875 18.0156C24.875 18.6302 25.1042 19.1615 25.5625 19.6094C26.0208 20.0573 26.6042 20.2812 27.3125 20.2812C28.1042 20.2812 28.8594 20.0208 29.5781 19.5C30.1094 19.1042 30.4583 18.6198 30.625 18.0469C30.7396 17.6719 30.7969 16.9583 30.7969 15.9062V15.0312ZM44.0156 23L37.3281 6.40625H41.9375L45.0625 14.875L45.9688 17.7031C46.2083 16.9844 46.3594 16.5104 46.4219 16.2812C46.5677 15.8125 46.724 15.3438 46.8906 14.875L50.0469 6.40625H54.5625L47.9688 23H44.0156ZM57.2656 4.15625V0.09375H61.6562V4.15625H57.2656ZM57.2656 23V6.40625H61.6562V23H57.2656ZM66.1719 23V0.09375H70.5625V23H66.1719ZM75.0781 4.15625V0.09375H79.4688V4.15625H75.0781ZM75.0781 23V6.40625H79.4688V23H75.0781ZM82.9688 14.4688C82.9688 13.0104 83.3281 11.599 84.0469 10.2344C84.7656 8.86979 85.7812 7.82812 87.0938 7.10938C88.4167 6.39062 89.8906 6.03125 91.5156 6.03125C94.026 6.03125 96.0833 6.84896 97.6875 8.48438C99.2917 10.1094 100.094 12.1667 100.094 14.6562C100.094 17.1667 99.2812 19.25 97.6562 20.9062C96.0417 22.5521 94.0052 23.375 91.5469 23.375C90.026 23.375 88.5729 23.0312 87.1875 22.3438C85.8125 21.6562 84.7656 20.651 84.0469 19.3281C83.3281 17.9948 82.9688 16.375 82.9688 14.4688ZM87.4688 14.7031C87.4688 16.349 87.8594 17.6094 88.6406 18.4844C89.4219 19.3594 90.3854 19.7969 91.5312 19.7969C92.6771 19.7969 93.6354 19.3594 94.4062 18.4844C95.1875 17.6094 95.5781 16.3385 95.5781 14.6719C95.5781 13.0469 95.1875 11.7969 94.4062 10.9219C93.6354 10.0469 92.6771 9.60938 91.5312 9.60938C90.3854 9.60938 89.4219 10.0469 88.6406 10.9219C87.8594 11.7969 87.4688 13.0573 87.4688 14.7031ZM118.641 23H114.25V14.5312C114.25 12.7396 114.156 11.5833 113.969 11.0625C113.781 10.5312 113.474 10.1198 113.047 9.82812C112.63 9.53646 112.125 9.39062 111.531 9.39062C110.771 9.39062 110.089 9.59896 109.484 10.0156C108.88 10.4323 108.464 10.9844 108.234 11.6719C108.016 12.3594 107.906 13.6302 107.906 15.4844V23H103.516V6.40625H107.594V8.84375C109.042 6.96875 110.865 6.03125 113.062 6.03125C114.031 6.03125 114.917 6.20833 115.719 6.5625C116.521 6.90625 117.125 7.34896 117.531 7.89062C117.948 8.43229 118.234 9.04688 118.391 9.73438C118.557 10.4219 118.641 11.4062 118.641 12.6875V23Z" fill="url(#paint0_linear_2142_37026)"/>
<defs>
<linearGradient id="paint0_linear_2142_37026" x1="21.5" y1="11" x2="117" y2="11" gradientUnits="userSpaceOnUse">
<stop offset="0.305937" stop-color="#4565E8"/>
<stop offset="1" stop-color="#202C5F"/>
</linearGradient>
</defs>
</svg>
