<svg width="16" height="16" viewBox="0 0 16 16" fill="none" xmlns="http://www.w3.org/2000/svg">
<path fill-rule="evenodd" clip-rule="evenodd" d="M0.5 2.16667C0.5 1.24619 1.24619 0.5 2.16667 0.5H13.8333C14.7538 0.5 15.5 1.24619 15.5 2.16667V13.8333C15.5 14.7538 14.7538 15.5 13.8333 15.5H2.16667C1.24619 15.5 0.5 14.7538 0.5 13.8333V2.16667ZM9.61575 4.37892C9.32158 3.64352 8.26717 3.68462 8.03092 4.44046L6.57108 9.11208L6.24766 8.46525C6.10509 8.18008 5.81366 8 5.49485 8H3.83333C3.3731 8 3 8.37308 3 8.83333C3 9.29358 3.3731 9.66667 3.83333 9.66667H4.98498L5.9954 11.6875C6.33417 12.3651 7.32558 12.2852 7.55158 11.5622L8.92983 7.15175L9.72417 9.13758C9.852 9.45717 10.1615 9.66667 10.5057 9.66667H12.1667C12.6269 9.66667 13 9.29358 13 8.83333C13 8.37308 12.6269 8 12.1667 8H11.0642L9.61575 4.37892Z" fill="#909DAD"/>
</svg>
