<svg width="18" height="18" viewBox="0 0 18 18" fill="none" xmlns="http://www.w3.org/2000/svg">
<path d="M16.2002 3.30078C16.2002 2.47368 15.5273 1.80078 14.7002 1.80078C13.8731 1.80078 13.2002 2.47368 13.2002 3.30078V4.80078H14.7002C15.5273 4.80078 16.2002 4.12788 16.2002 3.30078Z" fill="#909DAD"/>
<path d="M3.2998 1.80078C2.4727 1.80078 1.7998 2.47368 1.7998 3.30078C1.7998 4.12788 2.4727 4.80078 3.2998 4.80078H4.7998V3.30078C4.7998 2.47368 4.1269 1.80078 3.2998 1.80078Z" fill="#909DAD"/>
<path d="M1.7998 14.6992C1.7998 15.5263 2.4727 16.1992 3.2998 16.1992C4.1269 16.1992 4.7998 15.5263 4.7998 14.6992V13.1992H3.2998C2.4727 13.1992 1.7998 13.8721 1.7998 14.6992Z" fill="#909DAD"/>
<path d="M14.7 11.4H13.2V6.6H14.7C16.5195 6.6 18 5.1195 18 3.3C18 1.4805 16.5195 0 14.7 0C12.8805 0 11.4 1.4805 11.4 3.3V4.8H6.6V3.3C6.6 1.4805 5.1195 0 3.3 0C1.4805 0 0 1.4805 0 3.3C0 5.1195 1.4805 6.6 3.3 6.6H4.8V11.4H3.3C1.4805 11.4 0 12.8805 0 14.7C0 16.5195 1.4805 18 3.3 18C5.1195 18 6.6 16.5195 6.6 14.7V13.2H11.4V14.7C11.4 16.5195 12.8805 18 14.7 18C16.5195 18 18 16.5195 18 14.7C18 12.8805 16.5195 11.4 14.7 11.4ZM5.4 14.7C5.4 15.858 4.458 16.8 3.3 16.8C2.142 16.8 1.2 15.858 1.2 14.7C1.2 13.542 2.142 12.6 3.3 12.6H5.4V14.7ZM5.4 5.4H3.3C2.142 5.4 1.2 4.458 1.2 3.3C1.2 2.142 2.142 1.2 3.3 1.2C4.458 1.2 5.4 2.142 5.4 3.3V5.4ZM11.4 11.4H6.6V6.6H11.4V11.4ZM12.6 3.3C12.6 2.142 13.542 1.2 14.7 1.2C15.8577 1.2 16.8 2.142 16.8 3.3C16.8 4.458 15.8577 5.4 14.7 5.4H12.6V3.3ZM14.7 16.8C13.542 16.8 12.6 15.858 12.6 14.7V12.6H14.7C15.8577 12.6 16.8 13.542 16.8 14.7C16.8 15.858 15.8577 16.8 14.7 16.8Z" fill="#909DAD"/>
<path d="M14.7002 13.1992H13.2002V14.6992C13.2002 15.5263 13.8731 16.1992 14.7002 16.1992C15.5273 16.1992 16.2002 15.5263 16.2002 14.6992C16.2002 13.8721 15.5273 13.1992 14.7002 13.1992Z" fill="#909DAD"/>
</svg>
