<svg width="18" height="20" viewBox="0 0 18 20" fill="none" xmlns="http://www.w3.org/2000/svg">
<path fill-rule="evenodd" clip-rule="evenodd" d="M16.9601 11.501C17.299 11.6815 17.5604 11.9665 17.7443 12.2515C18.1026 12.8405 18.0735 13.5625 17.725 14.199L17.0473 15.339C16.689 15.947 16.021 16.327 15.3336 16.327C14.9947 16.327 14.6171 16.232 14.3073 16.042C14.0556 15.8805 13.7652 15.8235 13.4553 15.8235C12.4969 15.8235 11.6933 16.612 11.6642 17.5525C11.6642 18.645 10.7735 19.5 9.66011 19.5H8.3434C7.22033 19.5 6.32961 18.645 6.32961 17.5525C6.31025 16.612 5.50666 15.8235 4.54818 15.8235C4.22868 15.8235 3.93823 15.8805 3.69619 16.042C3.38637 16.232 2.9991 16.327 2.66993 16.327C1.97284 16.327 1.30481 15.947 0.946583 15.339L0.278545 14.199C-0.0796779 13.5815 -0.0990413 12.8405 0.259182 12.2515C0.414089 11.9665 0.70454 11.6815 1.03372 11.501C1.30481 11.368 1.47908 11.1495 1.64367 10.893C2.12775 10.076 1.8373 9.0025 1.01435 8.518C0.055866 7.9765 -0.253949 6.77 0.297908 5.8295L0.946583 4.7085C1.50812 3.768 2.70865 3.4355 3.67682 3.9865C4.51913 4.4425 5.61316 4.1385 6.10693 3.331C6.26184 3.065 6.34897 2.78 6.32961 2.495C6.31025 2.1245 6.41674 1.773 6.6007 1.488C6.95892 0.899 7.60759 0.519 8.31436 0.5H9.67948C10.3959 0.5 11.0446 0.899 11.4028 1.488C11.5771 1.773 11.6933 2.1245 11.6642 2.495C11.6449 2.78 11.732 3.065 11.8869 3.331C12.3807 4.1385 13.4747 4.4425 14.3267 3.9865C15.2852 3.4355 16.4954 3.768 17.0473 4.7085L17.6959 5.8295C18.2575 6.77 17.9477 7.9765 16.9795 8.518C16.1565 9.0025 15.8661 10.076 16.3599 10.893C16.5148 11.1495 16.689 11.368 16.9601 11.501ZM6.26184 10.0095C6.26184 11.501 7.49141 12.6885 9.01144 12.6885C10.5315 12.6885 11.732 11.501 11.732 10.0095C11.732 8.518 10.5315 7.321 9.01144 7.321C7.49141 7.321 6.26184 8.518 6.26184 10.0095Z" fill="#909DAD"/>
</svg>
