<svg width="18" height="16" viewBox="0 0 18 16" fill="none" xmlns="http://www.w3.org/2000/svg">
<path d="M17.332 10.7064C16.9873 10.6807 16.2757 11.0659 16.0813 11.1649C15.3881 11.5133 14.4235 12.0598 13.789 12.4963C13.745 12.5256 13.6863 12.566 13.6423 12.5953C13.3562 12.7787 13.0555 12.8997 12.7217 12.9731C10.8805 13.3655 8.19938 13.4059 8.19938 13.4059L8.04167 13.4132C7.9243 13.4205 7.81793 13.3362 7.80326 13.2225C7.78492 13.0978 7.87662 12.9804 8.00866 12.9694L11.9955 12.5916C12.4356 12.544 12.784 12.1332 12.7364 11.671C12.6887 11.2089 12.2632 10.8715 11.8231 10.9191L8.2764 10.8751C8.03433 10.8715 7.64922 10.8128 7.41815 10.7431C5.13315 10.0756 3.84211 10.6991 3.15624 10.9925C3.0022 10.7394 2.71245 10.5744 2.38969 10.5964L0.86024 10.6991C0.350425 10.7321 -0.0310194 11.1575 0.00199026 11.649L0.247729 15.0453C0.284406 15.5368 0.724534 15.9073 1.23435 15.8706L2.7638 15.7679C3.08656 15.7459 3.35063 15.5478 3.46433 15.2764L10.1836 15.5662C10.9318 15.6469 11.6324 15.5552 12.2926 15.2104L12.4833 15.1114L17.5631 12.1405C17.8125 11.9938 17.9886 11.7407 17.9996 11.462C18.0106 11.1209 17.8162 10.7431 17.332 10.7064ZM1.79551 15.0674C1.50943 15.0674 1.27469 14.8436 1.27469 14.5649C1.27469 14.2861 1.50943 14.0624 1.79551 14.0624C2.0816 14.0624 2.31633 14.2861 2.31633 14.5649C2.31633 14.8436 2.0816 15.0674 1.79551 15.0674ZM13.5543 11.8764C13.5616 11.7847 13.5616 11.6894 13.5506 11.594C13.5396 11.473 13.5103 11.3593 13.4736 11.2492C13.4773 11.2419 13.4809 11.2346 13.4809 11.2272C14.0164 10.9338 15.0654 10.4277 15.6375 10.2039C15.9236 10.0902 16.206 10.0976 16.4665 10.2736C16.2611 10.347 16.0703 10.4387 15.8906 10.5267C15.2891 10.8275 14.2291 11.4033 13.712 11.7664C13.6606 11.8031 13.6056 11.8397 13.5543 11.8764ZM15.0874 9.86284C14.6729 10.0462 13.877 10.325 13.4993 10.534L13.2425 10.6734C13.2168 10.6881 13.1948 10.7027 13.1728 10.7211C13.0591 10.5854 12.9234 10.4717 12.773 10.38C13.1251 10.1929 13.91 9.93986 14.2658 9.80049C14.5519 9.68679 14.827 9.69412 15.0874 9.86284ZM9.39139 1.36836C8.30208 1.36836 7.42182 2.25229 7.42182 3.33794C7.42182 4.42359 8.30574 5.30751 9.39139 5.30751C10.4807 5.30751 11.361 4.42359 11.361 3.33794C11.361 2.25229 10.4807 1.36836 9.39139 1.36836ZM9.95623 4.1155C9.87187 4.21819 9.75817 4.29155 9.62613 4.32456C9.56745 4.33923 9.54544 4.36857 9.54544 4.43092C9.54911 4.48961 9.54544 4.54829 9.54544 4.60697C9.54544 4.65832 9.51976 4.68766 9.46842 4.68766C9.40606 4.68766 9.34371 4.68766 9.28136 4.68766C9.22635 4.68766 9.20067 4.65465 9.20067 4.60331C9.20067 4.55929 9.20067 4.51895 9.20067 4.47493C9.20067 4.37957 9.197 4.37591 9.10531 4.36124C8.99161 4.3429 8.87791 4.31722 8.77155 4.26587C8.68719 4.22553 8.67985 4.20352 8.70553 4.11916C8.72387 4.05314 8.7422 3.99079 8.76054 3.92477C8.78255 3.85142 8.80456 3.84042 8.87057 3.87709C8.98794 3.93945 9.11265 3.97245 9.24102 3.98713C9.32537 3.99813 9.40606 3.99079 9.48309 3.95412C9.62613 3.89176 9.6518 3.72305 9.5271 3.62035C9.48676 3.58734 9.43907 3.56167 9.38773 3.53966C9.25935 3.48465 9.12732 3.44063 9.00995 3.37095C8.81556 3.25358 8.69086 3.09587 8.70553 2.85746C8.7202 2.58972 8.87424 2.421 9.11998 2.33298C9.22268 2.2963 9.22268 2.2963 9.22268 2.18994C9.22268 2.15326 9.22268 2.11658 9.22268 2.08357C9.22635 2.00288 9.23735 1.99188 9.31804 1.98821C9.34371 1.98821 9.36572 1.98821 9.39139 1.98821C9.56011 1.98821 9.56011 1.98821 9.56011 2.15693C9.56011 2.27796 9.56011 2.27796 9.68115 2.2963C9.77284 2.31097 9.86086 2.33664 9.94522 2.37332C9.9929 2.39533 10.0112 2.42467 9.99657 2.47602C9.97456 2.54937 9.95623 2.62273 9.93055 2.69608C9.90854 2.76577 9.88654 2.77311 9.82052 2.74376C9.68848 2.68141 9.54911 2.65207 9.4024 2.65941C9.36572 2.66307 9.32537 2.66674 9.29237 2.68141C9.16766 2.73643 9.14565 2.8758 9.25202 2.96016C9.30704 3.00417 9.36939 3.03351 9.43174 3.06286C9.54177 3.11054 9.65547 3.15455 9.76184 3.21323C10.1066 3.40396 10.1946 3.82575 9.95623 4.1155ZM12.8061 3.33794C12.8061 3.63869 12.5603 3.88443 12.2596 3.88443C11.9588 3.88443 11.7131 3.63869 11.7131 3.33794C11.7131 3.03718 11.9588 2.79144 12.2596 2.79144C12.5603 2.79144 12.8061 3.03718 12.8061 3.33794ZM7.07338 3.33794C7.07338 3.63869 6.82765 3.88443 6.52689 3.88443C6.22614 3.88443 5.9804 3.63869 5.9804 3.33794C5.9804 3.03718 6.22614 2.79144 6.52689 2.79144C6.82765 2.79144 7.07338 3.03718 7.07338 3.33794ZM13.6826 0.125H5.10014C4.605 0.125 4.20155 0.528451 4.20155 1.0236V5.65228C4.20155 6.14742 4.605 6.55087 5.10014 6.55087H13.6826C14.1778 6.55087 14.5812 6.14742 14.5812 5.65228V1.0236C14.5812 0.528451 14.1778 0.125 13.6826 0.125ZM13.8147 4.79036C13.7413 4.77202 13.668 4.76102 13.591 4.76102C13.0885 4.76102 12.6814 5.16814 12.6814 5.67062C12.6814 5.70729 12.685 5.74764 12.6887 5.78432H6.02441C6.03542 5.7293 6.03908 5.67428 6.03908 5.6156C6.03908 5.11312 5.63196 4.706 5.12948 4.706C5.07447 4.706 5.02312 4.70967 4.9681 4.72067V1.9552C5.01945 1.9662 5.07447 1.96987 5.12948 1.96987C5.63196 1.96987 6.03908 1.56275 6.03908 1.06027C6.03908 1.00159 6.03542 0.946573 6.02441 0.891557H12.707C12.6887 0.961244 12.6777 1.03827 12.6777 1.11529C12.6777 1.61777 13.0848 2.02489 13.5873 2.02489C13.6643 2.02489 13.7413 2.01388 13.811 1.99555V4.79036H13.8147ZM4.21622 7.54483C4.21622 7.3321 4.3886 7.15972 4.60133 7.15972H14.1998C14.4125 7.15972 14.5849 7.3321 14.5849 7.54483C14.5849 7.75756 14.4125 7.92994 14.1998 7.92994H4.59766C4.3886 7.92994 4.21622 7.75756 4.21622 7.54483ZM4.21622 8.93857C4.21622 8.72584 4.3886 8.55346 4.60133 8.55346H14.1998C14.4125 8.55346 14.5849 8.72584 14.5849 8.93857C14.5849 9.1513 14.4125 9.32368 14.1998 9.32368H4.59766C4.3886 9.32368 4.21622 9.1513 4.21622 8.93857Z" fill="#909DAD"/>
</svg>
