<svg width="18" height="18" viewBox="0 0 18 18" fill="none" xmlns="http://www.w3.org/2000/svg">
<path fill-rule="evenodd" clip-rule="evenodd" d="M5.74484 12.9514H11.4478C11.8776 12.9514 12.2341 12.6454 12.2341 12.2764C12.2341 11.9074 11.8776 11.6104 11.4478 11.6104H5.74484C5.31502 11.6104 4.95858 11.9074 4.95858 12.2764C4.95858 12.6454 5.31502 12.9514 5.74484 12.9514ZM9.28823 7.11035H5.74484C5.31502 7.11035 4.95858 7.41635 4.95858 7.78535C4.95858 8.15435 5.31502 8.45135 5.74484 8.45135H9.28823C9.71805 8.45135 10.0745 8.15435 10.0745 7.78535C10.0745 7.41635 9.71805 7.11035 9.28823 7.11035ZM16.7697 6.32305C17.0161 6.32063 17.2845 6.318 17.5282 6.318C17.7903 6.318 18 6.498 18 6.723V13.959C18 16.191 15.8928 18 13.293 18H4.94817C2.22248 18 0 16.101 0 13.761V4.059C0 1.827 2.11765 0 4.72801 0H10.3261C10.5987 0 10.8084 0.189 10.8084 0.414V3.312C10.8084 4.959 12.3914 6.309 14.3098 6.318C14.758 6.318 15.153 6.32085 15.4987 6.32334C15.7677 6.32528 16.0068 6.327 16.2178 6.327C16.3671 6.327 16.5605 6.3251 16.7697 6.32305ZM17.059 5.00875C16.1973 5.01145 15.1814 5.00875 14.4507 5.00245C13.2913 5.00245 12.3362 4.18255 12.3362 3.18715V0.814748C12.3362 0.426848 12.8845 0.234248 13.198 0.514148C13.7659 1.02116 14.5467 1.71831 15.3237 2.41206C16.0969 3.10248 16.8664 3.78954 17.4186 4.28245C17.7247 4.55515 17.5003 5.00785 17.059 5.00875Z" fill="#909DAD"/>
</svg>
