<svg width="18" height="20" viewBox="0 0 18 20" fill="none" xmlns="http://www.w3.org/2000/svg">
<path d="M2.07133 19.5C1.15786 19.5 0.416748 18.9894 0.416748 18.36V4.97767C0.416748 4.34829 1.15786 3.83767 2.07133 3.83767H4.03039C4.09244 3.83767 4.15334 3.84796 4.20504 3.86617L4.20274 3.86538V0.633792V0.633C4.20274 0.559375 4.28892 0.5 4.39578 0.5H11.3117C11.4185 0.5 11.5059 0.559375 11.5059 0.633V0.633792V3.84638C11.5334 3.84163 11.5656 3.83846 11.5978 3.83846H13.3385C14.252 3.83846 14.9931 4.34908 14.9931 4.97846V8.16967C15.0414 8.15304 15.0988 8.14354 15.1597 8.14354H16.0295C16.2432 8.14354 16.4167 8.26308 16.4167 8.41033V15.3548C16.4167 15.5021 16.2432 15.6216 16.0295 15.6216H15.1609C15.1 15.6216 15.0425 15.6121 14.9908 15.5947L14.9931 15.5955V18.36C14.9931 18.9894 14.252 19.5 13.3385 19.5H2.07133ZM10.4867 16.9421V17.8399C10.4867 17.9135 10.574 17.9737 10.6809 17.9737H12.2137C12.3205 17.9737 12.4078 17.9135 12.4078 17.8399V16.9421C12.4078 16.8685 12.3205 16.8091 12.2137 16.8091H10.6786C10.5717 16.8091 10.4855 16.8685 10.4844 16.9421H10.4867ZM6.86041 16.9421V17.8399C6.86041 17.9135 6.94774 17.9737 7.05459 17.9737H8.58623C8.69309 17.9737 8.78041 17.9135 8.78041 17.8399V16.9421C8.78041 16.8685 8.69309 16.8091 8.58623 16.8091H7.05344C6.94659 16.8091 6.86156 16.8685 6.86041 16.9421ZM3.23413 16.9421V17.8399C3.23413 17.9135 3.3203 17.9737 3.42716 17.9737H4.95994C5.0668 17.9737 5.15413 17.9135 5.15413 17.8399V16.9421C5.15413 16.8685 5.0668 16.8091 4.95994 16.8091H3.42716C3.3203 16.8091 3.23413 16.8685 3.23413 16.9421ZM10.4855 14.9068V15.8045C10.4855 15.8781 10.5729 15.9383 10.6797 15.9383H12.2125C12.3194 15.9383 12.4067 15.8781 12.4067 15.8045V14.9068C12.4067 14.8331 12.3205 14.773 12.2137 14.773H12.2125H10.6786C10.5717 14.773 10.4844 14.8323 10.4844 14.906L10.4855 14.9068ZM6.85926 14.9068V15.8045C6.85926 15.8781 6.94659 15.9383 7.05344 15.9383H8.58623C8.69309 15.9383 8.78041 15.8781 8.78041 15.8045V14.9068C8.78041 14.8331 8.69423 14.773 8.58738 14.773H7.05344C6.94659 14.773 6.85926 14.8331 6.85926 14.9068ZM3.23298 14.9068V15.8045C3.23298 15.8781 3.31915 15.9383 3.42601 15.9383H4.95879C5.06565 15.9383 5.15298 15.8781 5.15298 15.8045V14.9068C5.15298 14.8331 5.0668 14.773 4.95994 14.773H3.42601C3.31915 14.773 3.23298 14.8331 3.23298 14.9068ZM10.4844 12.8706V13.7683C10.4844 13.842 10.5706 13.9021 10.6774 13.9021H12.2114C12.3182 13.9021 12.4055 13.8428 12.4055 13.7691V12.8706C12.4055 12.797 12.3182 12.7376 12.2114 12.7376H10.6786C10.5717 12.7376 10.4855 12.797 10.4844 12.8706ZM6.85811 12.8706V13.7683C6.85811 13.842 6.94429 13.9021 7.05115 13.9021H8.58508C8.69194 13.9021 8.77926 13.8428 8.77926 13.7691V12.8706C8.77926 12.797 8.69194 12.7376 8.58508 12.7376H7.0523C6.94544 12.7376 6.85926 12.797 6.85811 12.8706ZM3.23183 12.8706V13.7683C3.23183 13.842 3.318 13.9021 3.42486 13.9021H4.95879C5.06565 13.9021 5.15298 13.8428 5.15298 13.7691V12.8706C5.15298 12.797 5.06565 12.7376 4.95879 12.7376H3.42601C3.31915 12.7376 3.23183 12.797 3.23183 12.8706ZM2.99054 7.55613V11.444C2.99054 11.5176 3.07671 11.5778 3.18357 11.5778H12.1011H12.1022C12.2091 11.5778 12.2952 11.5184 12.2952 11.4448V7.55613C12.2952 7.4825 12.2079 7.42233 12.1011 7.42233H3.18472C3.07786 7.42233 2.99054 7.4825 2.99054 7.55613ZM2.41143 5.43288V6.37417C2.41143 6.59504 2.67111 6.77475 2.99169 6.77475H2.99283H12.6422C12.9628 6.77475 13.2225 6.59583 13.2225 6.37496V5.43288C13.2225 5.212 12.9628 5.03308 12.6422 5.03308H11.5047V5.83267H12.0654V5.97358H3.57194V5.83267H3.93962C4.03614 5.83267 4.12921 5.81604 4.20849 5.78754L4.20504 5.78833V5.07742C4.12806 5.04971 4.03729 5.03308 3.93962 5.03308H2.98939C2.66996 5.03308 2.41143 5.212 2.41143 5.43288Z" fill="#909DAD"/>
</svg>
