<svg width="18" height="18" viewBox="0 0 18 18" fill="none" xmlns="http://www.w3.org/2000/svg">
<path d="M6.30705 15.1897C6.63166 15.4747 6.96676 15.7688 7.31145 16.0737C7.3138 16.0757 7.3162 16.0779 7.3186 16.08L8.46528 17.0704C8.61892 17.2032 8.80959 17.2695 9.00027 17.2695C9.19095 17.2695 9.38168 17.2031 9.53532 17.0704L10.6818 16.08C10.6842 16.0779 10.6865 16.0758 10.6889 16.0737C12.9588 14.0662 14.6608 12.5294 15.8921 11.0304C17.3302 9.27981 18.0001 7.69694 18.0001 6.04909C18.0001 3.06775 15.6647 0.732422 12.6835 0.732422C11.3436 0.732422 10.0196 1.23697 9.00027 2.11158C7.98065 1.23691 6.65671 0.732422 5.31672 0.732422C2.33538 0.732367 0 3.06775 0 6.04904C0 9.65282 2.50909 11.8555 6.30705 15.1897ZM5.72656 7.36431H7.9088V5.18196H10.0911V7.36431H12.2734V9.5466H10.0911V11.7288H7.9088V9.5466H5.72656V7.36431Z" fill="#909DAD"/>
</svg>
