<svg width="20" height="20" viewBox="0 0 20 20" fill="none" xmlns="http://www.w3.org/2000/svg">
<path d="M12.5 18.3332H7.49996C3.33329 18.3332 1.66663 16.6665 1.66663 12.4998V7.49984C1.66663 3.33317 3.33329 1.6665 7.49996 1.6665H12.5C16.6666 1.6665 18.3333 3.33317 18.3333 7.49984V12.4998C18.3333 16.6665 16.6666 18.3332 12.5 18.3332Z" stroke="#909DAD" stroke-width="1.5" stroke-linecap="round" stroke-linejoin="round"/>
<path d="M13.0169 5.10727H12.2465V4.3852C12.2465 4.17257 12.0739 4 11.8613 4H8.13779C7.92514 4 7.75257 4.17257 7.75257 4.3852V5.10731H6.98218C6.48553 5.10731 6.08337 5.50971 6.08337 6.00612V15.1012C6.08337 15.5976 6.48549 16 6.98218 16H13.0169C13.5135 16 13.9156 15.5976 13.9156 15.1012V6.00608C13.9157 5.50996 13.5135 5.10727 13.0169 5.10727ZM11.0267 6.00608V5.10727V4.77041H11.4762V5.10733V6.00614V6.85665H11.0267V6.00608ZM8.52302 6.00608V5.10727V4.77041H9.93537V5.10733V6.00614V6.85665H8.52302V6.00608ZM8.75849 14.9456C8.75849 15.1585 8.58592 15.3308 8.37328 15.3308H7.75261C7.53996 15.3308 7.36739 15.1585 7.36739 14.9456V14.2825C7.36739 14.0697 7.53996 13.8974 7.75261 13.8974H8.37328C8.58592 13.8974 8.75849 14.0697 8.75849 14.2825V14.9456ZM8.75849 13.0088C8.75849 13.2217 8.58592 13.394 8.37328 13.394H7.75261C7.53996 13.394 7.36739 13.2217 7.36739 13.0088V12.3458C7.36739 12.1329 7.53996 11.9606 7.75261 11.9606H8.37328C8.58592 11.9606 8.75849 12.1329 8.75849 12.3458V13.0088ZM8.75849 11.0724C8.75849 11.2852 8.58592 11.4576 8.37328 11.4576H7.75261C7.53996 11.4576 7.36739 11.2852 7.36739 11.0724V10.4091C7.36739 10.1962 7.53996 10.0239 7.75261 10.0239H8.37328C8.58592 10.0239 8.75849 10.1962 8.75849 10.4091V11.0724ZM10.6952 14.9456C10.6952 15.1585 10.5226 15.3308 10.31 15.3308H9.68908C9.47643 15.3308 9.30388 15.1585 9.30388 14.9456V14.2825C9.30388 14.0697 9.47643 13.8974 9.68908 13.8974H10.31C10.5226 13.8974 10.6952 14.0697 10.6952 14.2825V14.9456ZM10.6952 13.0088C10.6952 13.2217 10.5226 13.394 10.31 13.394H9.68908C9.47643 13.394 9.30388 13.2217 9.30388 13.0088V12.3458C9.30388 12.1329 9.47643 11.9606 9.68908 11.9606H10.31C10.5226 11.9606 10.6952 12.1329 10.6952 12.3458V13.0088ZM10.6952 11.0724C10.6952 11.2852 10.5226 11.4576 10.31 11.4576H9.68908C9.47643 11.4576 9.30388 11.2852 9.30388 11.0724V10.4091C9.30388 10.1962 9.47643 10.0239 9.68908 10.0239H10.31C10.5226 10.0239 10.6952 10.1962 10.6952 10.4091V11.0724ZM12.6317 14.9456C12.6317 15.1585 12.4592 15.3308 12.2465 15.3308H11.6259C11.4132 15.3308 11.2407 15.1585 11.2407 14.9456V14.2825C11.2407 14.0697 11.4132 13.8974 11.6259 13.8974H12.2465C12.4592 13.8974 12.6317 14.0697 12.6317 14.2825V14.9456ZM12.6317 13.0088C12.6317 13.2217 12.4592 13.394 12.2465 13.394H11.6259C11.4132 13.394 11.2407 13.2217 11.2407 13.0088V12.3458C11.2407 12.1329 11.4132 11.9606 11.6259 11.9606H12.2465C12.4592 11.9606 12.6317 12.1329 12.6317 12.3458V13.0088ZM12.6317 11.0724C12.6317 11.2852 12.4592 11.4576 12.2465 11.4576H11.6259C11.4132 11.4576 11.2407 11.2852 11.2407 11.0724V10.4091C11.2407 10.1962 11.4132 10.0239 11.6259 10.0239H12.2465C12.4592 10.0239 12.6317 10.1962 12.6317 10.4091V11.0724ZM12.6317 8.82312C12.6317 9.18647 12.3369 9.48104 11.9736 9.48104H8.02537C7.66202 9.48104 7.36745 9.18647 7.36745 8.82312V8.14339C7.36745 7.77975 7.66202 7.48524 8.02537 7.48524H11.9736C12.3369 7.48524 12.6317 7.7798 12.6317 8.14339V8.82312H12.6317Z" fill="#909DAD"/>
</svg>
